<svg width="24" height="24" viewBox="0 0 24 24" fill="none" xmlns="http://www.w3.org/2000/svg">
<path d="M9.40019 10.1H2.90019C2.80019 10.1 2.7002 9.99995 2.7002 9.89995V3.39995C2.7002 3.29995 2.80019 3.19995 2.90019 3.19995H9.40019C9.50019 3.19995 9.60019 3.29995 9.60019 3.39995V9.89995C9.60019 9.99995 9.50019 10.1 9.40019 10.1Z" stroke="white" stroke-width="2"/>
<path d="M9.40019 21.5999H2.90019C2.80019 21.5999 2.7002 21.5 2.7002 21.4V14.9C2.7002 14.8 2.80019 14.7 2.90019 14.7H9.40019C9.50019 14.7 9.60019 14.8 9.60019 14.9V21.4C9.60019 21.5 9.50019 21.5999 9.40019 21.5999Z" stroke="white" stroke-width="2"/>
<path d="M20.9002 21.5999H14.4002C14.3002 21.5999 14.2002 21.5 14.2002 21.4V14.9C14.2002 14.8 14.3002 14.7 14.4002 14.7H20.9002C21.0002 14.7 21.1002 14.8 21.1002 14.9V21.4C21.1002 21.5 21.0002 21.5999 20.9002 21.5999Z" stroke="white" stroke-width="2"/>
<path d="M22.5001 7.39995L17.8001 12.0999C17.7001 12.1999 17.6001 12.1999 17.5001 12.0999L12.8001 7.39995C12.7001 7.29995 12.7001 7.19995 12.8001 7.09995L17.5001 2.39995C17.6001 2.29995 17.7001 2.29995 17.8001 2.39995L22.5001 7.09995C22.6001 7.19995 22.6001 7.29995 22.5001 7.39995Z" stroke="white" stroke-width="2"/>
</svg>
