<svg width="24" height="19" viewBox="0 0 24 19" fill="none" xmlns="http://www.w3.org/2000/svg">
    <path d="M11.6667 5.25C11.6667 7.06369 10.2303 8.5 8.5 8.5V10.5C11.372 10.5 13.6667 8.13073 13.6667 5.25H11.6667ZM8.5 8.5C6.76967 8.5 5.33333 7.06369 5.33333 5.25H3.33333C3.33333 8.13073 5.62795 10.5 8.5 10.5V8.5ZM5.33333 5.25C5.33333 3.43631 6.76967 2 8.5 2V0C5.62795 0 3.33333 2.36927 3.33333 5.25H5.33333ZM8.5 2C10.2303 2 11.6667 3.43631 11.6667 5.25H13.6667C13.6667 2.36927 11.372 0 8.5 0V2ZM1.96032 18.2789C2.85426 15.2009 5.48191 13.05 8.5 13.05V11.05C4.4794 11.05 1.14884 13.902 0.0396806 17.7211L1.96032 18.2789ZM19.7778 8.75C19.7778 9.70705 18.9913 10.5 18 10.5V12.5C20.0769 12.5 21.7778 10.8305 21.7778 8.75H19.7778ZM18 10.5C17.0087 10.5 16.2222 9.70705 16.2222 8.75H14.2222C14.2222 10.8305 15.9231 12.5 18 12.5V10.5ZM16.2222 8.75C16.2222 7.79295 17.0087 7 18 7V5C15.9231 5 14.2222 6.66948 14.2222 8.75H16.2222ZM18 7C18.9913 7 19.7778 7.79295 19.7778 8.75H21.7778C21.7778 6.66948 20.0769 5 18 5V7ZM18 15.15C19.8649 15.15 21.4893 16.4395 22.042 18.2867L23.958 17.7133C23.1753 15.0976 20.8276 13.15 18 13.15V15.15ZM15.3676 16.1226C16.0951 15.5099 17.0092 15.15 18 15.15V13.15C16.511 13.15 15.1464 13.6942 14.0793 14.5928L15.3676 16.1226ZM8.5 13.05C10.6773 13.05 12.6402 14.162 13.9097 15.939L15.5371 14.7764C13.9318 12.5294 11.3885 11.05 8.5 11.05V13.05ZM13.9097 15.939C14.4037 16.6304 14.7903 17.4203 15.0397 18.2789L16.9603 17.7211C16.6482 16.6465 16.1627 15.652 15.5371 14.7764L13.9097 15.939Z" fill="white"/>
</svg>
